<svg width="107" height="26" viewBox="0 0 107 26" fill="none" xmlns="http://www.w3.org/2000/svg">
<g filter="url(#filter0_d_122_252)">
<path fill-rule="evenodd" clip-rule="evenodd" d="M10.5126 9.2816V7.20316L4.76699 9.33873H4.7561V11.4716H4.76699L10.5126 13.6072V11.526L7.56635 10.3997L10.5126 9.27888V9.2816Z" fill="#F7DD43"/>
<path fill-rule="evenodd" clip-rule="evenodd" d="M43.7922 13.5037V11.4253L46.7358 10.3072L43.7922 9.18905V7.1106L49.5297 9.24618H49.5433V11.3817H49.5297L43.7922 13.5064V13.5037ZM41.3275 4.16977L37.9541 15H39.9564L43.3298 4.16977H41.3275Z" fill="#F7DD43"/>
<path fill-rule="evenodd" clip-rule="evenodd" d="M18.9543 6.91747C19.5256 7.54317 19.8249 8.3702 19.7895 9.21627V13.8302H17.7872V9.64066C17.8117 9.17274 17.6621 8.7157 17.3683 8.35116C17.0908 8.02742 16.68 7.84787 16.2529 7.86691C14.9987 7.86691 14.3703 8.73746 14.3703 10.4758V13.8302H12.368V6.25639H14.3703V6.93923C15.0069 6.32168 15.8693 5.99251 16.7562 6.03059C17.5832 5.99523 18.383 6.31896 18.9543 6.91747V6.91747Z" fill="#F7DD43"/>
<path fill-rule="evenodd" clip-rule="evenodd" d="M22.3413 3V13.8302H24.3436V3H22.3413Z" fill="#F7DD43"/>
<path fill-rule="evenodd" clip-rule="evenodd" d="M35.6661 13.8302H33.9958L32.358 9.36862L30.704 13.8302H29.0336L26.2261 6.2428H28.3671L29.945 10.7806L31.5718 6.2428H33.1361L34.7629 10.7942L36.3408 6.2428H38.4818L35.6716 13.8302H35.6661Z" fill="#F7DD43"/>
<path d="M59.0796 17.9981C57.1533 17.9981 55.1295 17.6331 53.5433 16.754V1.24411C55.1046 0.389878 57.1284 2.85548e-05 59.0796 2.85548e-05C61.0307 2.85548e-05 63.0067 0.365035 64.5661 1.24411V7.19505H60.639V3.14558C60.1765 2.95066 59.6147 2.87804 59.0547 2.87804C58.4948 2.87804 57.9807 2.95066 57.4934 3.14558V14.8525C57.9559 15.0475 58.4929 15.1201 59.0547 15.1201C59.6166 15.1201 60.1517 15.0475 60.639 14.8525V10.805H64.5661V16.7559C63.0297 17.6102 61.0059 17.9752 59.0796 18V17.9981Z" fill="#F7DD43"/>
<path d="M71.9313 17.9981C69.8579 17.9981 67.8589 17.5585 66.2728 16.6565V1.3167C67.8341 0.439536 69.8349 0 71.9313 0C74.0277 0 75.9789 0.414693 77.5402 1.3167V16.6565C76.0037 17.5585 73.98 17.9732 71.9313 17.9981ZM73.6149 3.19524C73.1525 3.00031 72.5906 2.90285 71.9084 2.90285C71.2262 2.90285 70.6892 3.00031 70.2248 3.19524V14.7799C70.6872 14.9997 71.2491 15.0971 71.9084 15.0971C72.5677 15.0971 73.1276 14.9997 73.6149 14.7799V3.19524Z" fill="#F7DD43"/>
<path d="M84.3931 11.4127H83.3439V17.7783H79.369V0.219779H84.3931C86.7838 0.219779 88.5878 0.707092 90.0019 1.70656V9.92589C88.6126 10.9024 86.7818 11.4127 84.3931 11.4127ZM86.0518 3.24303C85.6868 2.97548 85.1976 2.85318 84.3682 2.85318H83.2942V8.77927H84.3682C85.1728 8.77927 85.6601 8.65697 86.0518 8.41427V3.24303Z" fill="#F7DD43"/>
<path d="M98.3168 17.7783V11.4127H95.391V17.7783H91.4409V1.29185C92.8799 0.437625 94.9037 0 96.8549 0C98.806 0 100.805 0.439537 102.244 1.29185V17.7783H98.3168ZM98.3168 3.04809C97.9021 2.85316 97.39 2.7557 96.853 2.7557C96.316 2.7557 95.8038 2.85316 95.3891 3.04809V8.63211H98.3149V3.04809H98.3168Z" fill="#F7DD43"/>
</g>
<defs>
<filter id="filter0_d_122_252" x="0.756104" y="0" width="105.488" height="26" filterUnits="userSpaceOnUse" color-interpolation-filters="sRGB">
<feFlood flood-opacity="0" result="BackgroundImageFix"/>
<feColorMatrix in="SourceAlpha" type="matrix" values="0 0 0 0 0 0 0 0 0 0 0 0 0 0 0 0 0 0 127 0" result="hardAlpha"/>
<feOffset dy="4"/>
<feGaussianBlur stdDeviation="2"/>
<feComposite in2="hardAlpha" operator="out"/>
<feColorMatrix type="matrix" values="0 0 0 0 0 0 0 0 0 0 0 0 0 0 0 0 0 0 0.25 0"/>
<feBlend mode="normal" in2="BackgroundImageFix" result="effect1_dropShadow_122_252"/>
<feBlend mode="normal" in="SourceGraphic" in2="effect1_dropShadow_122_252" result="shape"/>
</filter>
</defs>
</svg>
